HIERARCHY
ROOT Hips
{
	OFFSET -3.958830 18.904000 13.208200
	CHANNELS 6 Xposition Yposition Zposition Zrotation Yrotation Xrotation 
	JOINT LHipJoint
	{
		OFFSET 0.000000 0.000000 0.000000
		CHANNELS 3 Zrotation Yrotation Xrotation
		JOINT LeftUpLeg
		{
			OFFSET 1.800000 -1.400000 0.085000
			CHANNELS 3 Zrotation Yrotation Xrotation
			JOINT LeftLeg
			{
				OFFSET 2.215000 -6.000000 0.000000
				CHANNELS 3 Zrotation Yrotation Xrotation
				JOINT LeftFoot
				{
					OFFSET 2.500000 -6.900000 0.000000
					CHANNELS 3 Zrotation Yrotation Xrotation
					JOINT LeftToeBase
					{
						OFFSET 0.200000 -0.500000 1.950000
						CHANNELS 3 Zrotation Yrotation Xrotation
						End Site
						{
							OFFSET 0.000000 0.000000 0.000000
						}
					}
				}
			}
		}
	}
	JOINT RHipJoint
	{
		OFFSET 0.000000 0.000000 0.000000
		CHANNELS 3 Zrotation Yrotation Xrotation
		JOINT RightUpLeg
		{
			OFFSET -1.800000 -1.400000 0.085000
			CHANNELS 3 Zrotation Yrotation Xrotation
			JOINT RightLeg
			{
				OFFSET -2.215000 -6.000000 0.000000
				CHANNELS 3 Zrotation Yrotation Xrotation
				JOINT RightFoot
				{
					OFFSET -2.500000 -6.900000 0.000000
					CHANNELS 3 Zrotation Yrotation Xrotation
					JOINT RightToeBase
					{
						OFFSET -0.200000 -0.500000 1.950000
						CHANNELS 3 Zrotation Yrotation Xrotation
						End Site
						{
							OFFSET 0.000000 0.000000 0.000000
						}
					}
				}
			}
		}
	}
	JOINT LowerBack
	{
		OFFSET 0.000000 0.000000 0.000000
		CHANNELS 3 Zrotation Yrotation Xrotation
		JOINT Spine
		{
			OFFSET -0.087000 1.940000 -0.288900
			CHANNELS 3 Zrotation Yrotation Xrotation
			JOINT Spine1
			{
				OFFSET 0.000000 1.950000 0.060000
				CHANNELS 3 Zrotation Yrotation Xrotation
				JOINT Neck
				{
					OFFSET 0.000000 0.000000 0.000000
					CHANNELS 3 Zrotation Yrotation Xrotation
					JOINT Neck1
					{
						OFFSET 0.000000 1.600000 0.340000
						CHANNELS 3 Zrotation Yrotation Xrotation
						JOINT Head
						{
							OFFSET 0.000000 1.667000 -0.240000
							CHANNELS 3 Zrotation Yrotation Xrotation
							End Site
							{
								OFFSET 0.000000 0.000000 0.000000
							}
						}
					}
				}
				JOINT LeftShoulder
				{
					OFFSET 0.000000 0.000000 0.000000
					CHANNELS 3 Zrotation Yrotation Xrotation
					JOINT LeftArm
					{
						OFFSET 2.700000 1.550000 -0.730000
						CHANNELS 3 Zrotation Yrotation Xrotation
						JOINT LeftForeArm
						{
							OFFSET 5.450000 0.000000 0.000000
							CHANNELS 3 Zrotation Yrotation Xrotation
							JOINT LeftHand
							{
								OFFSET 3.450000 0.000000 0.000000
								CHANNELS 3 Zrotation Yrotation Xrotation
								JOINT LeftHandIndex1
								{
									OFFSET 0.750000 0.000000 0.000000
									CHANNELS 3 Zrotation Yrotation Xrotation
									End Site
									{
										OFFSET 0.000000 0.000000 0.000000
									}
								}
							}
						}
					}
				}
				JOINT RightShoulder
				{
					OFFSET 0.000000 0.000000 0.000000
					CHANNELS 3 Zrotation Yrotation Xrotation
					JOINT RightArm
					{
						OFFSET -2.700000 1.550000 -0.730000
						CHANNELS 3 Zrotation Yrotation Xrotation
						JOINT RightForeArm
						{
							OFFSET -5.450000 0.000000 0.000000
							CHANNELS 3 Zrotation Yrotation Xrotation
							JOINT RightHand
							{
								OFFSET -3.450000 0.000000 0.000000
								CHANNELS 3 Zrotation Yrotation Xrotation
								JOINT RightHandIndex1
								{
									OFFSET -0.750000 0.000000 0.000000
									CHANNELS 3 Zrotation Yrotation Xrotation
									End Site
									{
										OFFSET 0.000000 0.000000 0.000000
									}
								}
							}
						}
					}
				}
			}
		}
	}
}
MOTION
Frames: 6
Frame Time: 0.016667
0.320120 16.421670 -0.724990 -3.899731 10.200128 -0.711014 -14.753166 12.607987 2.810053 -0.425368 -1.420105 -12.361126 -1.950011 3.873936 12.391634 -0.217215 2.693881 3.638221 0.439880 0.333620 0.387050 18.573066 -12.452426 2.805382 -0.983469 2.384234 -27.363513 -21.397813 2.217314 34.111127 -0.470326 -4.858649 2.502176 0.142100 -0.052920 0.217070 -4.833435 2.280288 -7.374442 16.685664 -3.338268 10.305646 -9.604569 -1.438378 5.471865 5.152928 10.071241 -12.897992 20.117239 -23.674819 23.435388 0.660990 -17.349780 -6.159010 -10.811835 -11.987899 5.243821 -38.809714 -3.326619 -5.496521 -16.830731 -23.237512 2.042308 -3.531594 3.255424 0.112810 -0.018530 0.126910 0.139100 -1.454958 7.857541 9.950123 58.404240 3.746904 -4.932887 13.377380 20.263756 -0.259262 2.488886 -1.688030 0.126730 -0.085790 -0.285880 0.048590 
0.321640 16.417050 -0.722100 -3.865854 9.382524 -0.385112 -14.747420 12.601549 2.823676 -0.425084 -1.460447 -12.524456 -2.170093 3.903303 12.356712 -0.207515 2.687896 3.635002 0.448590 0.347390 0.388240 18.577410 -12.462393 2.784682 -1.017668 2.254008 -27.023804 -21.576661 2.215648 32.434711 -0.435805 -4.669454 2.567522 0.147900 -0.059310 0.227120 -4.822437 2.302142 -7.350343 16.600803 -3.173344 10.007528 -9.450338 -1.387117 5.155567 5.164237 10.125430 -12.704504 20.220303 -23.717986 23.072006 0.255460 -17.135240 -5.805050 -11.630196 -11.657758 5.205174 -38.383932 -2.720439 -5.627376 -18.395783 -24.144911 2.462232 -3.523418 3.299838 0.097620 -0.012140 0.127920 0.144690 -0.653352 7.429722 9.702569 58.181094 3.383268 -5.075552 13.591178 20.455476 -0.240738 2.495760 -1.706390 0.139350 -0.104670 -0.295240 0.052750 
0.323230 16.404460 -0.713230 -3.793929 7.898463 0.256292 -14.737995 12.586971 2.842204 -0.407444 -1.542083 -12.867776 -2.523890 3.964102 12.349961 -0.204936 2.700470 3.633992 0.439210 0.340160 0.384860 18.585670 -12.474006 2.753685 -1.178858 2.065544 -26.557037 -21.463878 2.064482 29.965230 -0.368150 -4.378913 2.674941 0.149030 -0.049700 0.232740 -4.803289 2.339398 -7.304920 16.445264 -2.884096 9.428055 -9.158809 -1.290285 4.622081 5.126294 10.158027 -12.379230 20.267250 -23.846221 22.252751 -0.645890 -16.773030 -5.020810 -12.654164 -10.927090 5.085302 -38.004865 -1.693538 -5.849731 -21.310402 -25.772236 3.290141 -3.529460 3.345088 0.073900 0.010500 0.114240 0.145170 0.426750 6.582500 9.335109 58.132895 2.550980 -5.604384 14.095500 21.243153 -0.197083 2.494437 -1.724654 0.138010 -0.113960 -0.295740 0.053430 
0.320930 16.392150 -0.704230 -3.739726 5.628339 0.998921 -14.727654 12.568841 2.862804 -0.258036 -1.655301 -13.325746 -3.140819 4.103746 12.463262 -0.188236 2.728471 3.620715 0.431730 0.339070 0.381870 18.594776 -12.471494 2.728766 -1.450167 1.939546 -26.110668 -20.771591 1.766284 27.533778 -0.298518 -4.059382 2.785958 0.146830 -0.046040 0.241270 -4.767952 2.365809 -7.255007 16.119576 -2.351924 8.908232 -8.550160 -0.998293 3.977750 5.002063 10.213785 -12.002295 20.334436 -23.947461 21.566773 -1.214700 -16.424830 -4.418280 -13.631936 -10.032473 4.893291 -38.082713 -0.899155 -5.955066 -24.851016 -27.070642 4.273082 -3.535436 3.399609 0.048630 0.026340 0.106800 0.141970 1.682117 5.540141 8.870131 57.947555 1.453618 -6.287073 15.029961 22.193803 -0.081209 2.501540 -1.743196 0.147000 -0.130020 -0.296620 0.058320 
0.315410 16.383450 -0.695150 -3.862016 2.625600 1.739403 -14.712003 12.552368 2.877301 0.091290 -1.769971 -13.809211 -3.894841 4.298903 12.660641 -0.176947 2.795131 3.597105 0.423080 0.329650 0.375510 18.609354 -12.444748 2.731502 -1.598892 2.002489 -25.911580 -19.426384 1.375603 26.083680 -0.238129 -3.814004 2.874605 0.143760 -0.033050 0.254700 -4.735998 2.370609 -7.210725 15.958891 -1.767286 8.468650 -7.871962 -0.616356 3.330783 4.899215 10.172809 -11.544606 20.124455 -23.747267 21.168719 -1.818180 -15.896660 -3.758860 -14.792809 -9.020272 4.640813 -38.428726 -0.105431 -5.975445 -28.398650 -27.844570 5.209796 -3.552350 3.445690 0.030100 0.048220 0.096290 0.143870 3.117770 4.452683 8.314726 57.397266 0.368040 -6.977142 16.683190 23.429610 0.183202 2.499745 -1.765175 0.149100 -0.141800 -0.293550 0.060360 
0.305610 16.378950 -0.689340 -4.019724 -0.569305 2.492440 -14.705064 12.553190 2.890299 0.416334 -1.902297 -14.379736 -4.485382 4.488695 13.045297 -0.154270 2.866953 3.573776 0.416710 0.316640 0.372020 18.616423 -12.390561 2.747453 -1.745352 2.205584 -26.171973 -17.510894 0.905333 26.220821 -0.193940 -3.699646 2.910822 0.135970 -0.018030 0.271830 -4.686080 2.302550 -7.168637 15.643340 -1.265149 8.101949 -6.678802 -0.329648 2.697825 4.593755 9.874830 -11.004357 19.268052 -23.156278 21.060901 -2.346830 -15.303860 -2.957770 -15.852128 -7.964139 4.367978 -39.750258 0.518675 -6.044043 -31.182467 -27.682131 5.720454 -3.574421 3.486708 0.006180 0.068860 0.082930 0.147780 4.897548 3.500395 7.571340 56.396986 -0.493509 -7.456215 18.012232 24.185241 0.430025 2.514958 -1.786812 0.156440 -0.160360 -0.294310 0.066040 
